<mxfile host="app.diagrams.net" agent="Mozilla/5.0 (Windows NT 10.0; Win64; x64) AppleWebKit/537.36 (KHTML, like Gecko) Chrome/133.0.0.0 Safari/537.36" version="26.0.6">
  <diagram name="Página-1" id="4kqt9d3Pt6XcYFXYm9y9">
    <mxGraphModel dx="1325" dy="728" grid="1" gridSize="10" guides="1" tooltips="1" connect="1" arrows="1" fold="1" page="1" pageScale="1" pageWidth="827" pageHeight="1169" math="0" shadow="0">
      <root>
        <mxCell id="0" />
        <mxCell id="1" parent="0" />
        <mxCell id="9hVH7um2cHAASlv1t2qv-1" value="Logar" style="ellipse;whiteSpace=wrap;html=1;" vertex="1" parent="1">
          <mxGeometry x="294" y="430" width="120" height="80" as="geometry" />
        </mxCell>
        <mxCell id="9hVH7um2cHAASlv1t2qv-2" value="Actor" style="shape=umlActor;verticalLabelPosition=bottom;verticalAlign=top;html=1;outlineConnect=0;" vertex="1" parent="1">
          <mxGeometry x="140" y="600" width="30" height="60" as="geometry" />
        </mxCell>
        <mxCell id="9hVH7um2cHAASlv1t2qv-4" value="Cadastrar" style="ellipse;whiteSpace=wrap;html=1;" vertex="1" parent="1">
          <mxGeometry x="294" y="544.5" width="120" height="80" as="geometry" />
        </mxCell>
        <mxCell id="9hVH7um2cHAASlv1t2qv-5" value="Inserir publicação" style="ellipse;whiteSpace=wrap;html=1;" vertex="1" parent="1">
          <mxGeometry x="294" y="660" width="120" height="80" as="geometry" />
        </mxCell>
        <mxCell id="9hVH7um2cHAASlv1t2qv-8" value="Visualizar publicação" style="ellipse;whiteSpace=wrap;html=1;" vertex="1" parent="1">
          <mxGeometry x="294" y="780" width="120" height="80" as="geometry" />
        </mxCell>
        <mxCell id="9hVH7um2cHAASlv1t2qv-9" value="Editar publicação" style="ellipse;whiteSpace=wrap;html=1;" vertex="1" parent="1">
          <mxGeometry x="570" y="780" width="120" height="80" as="geometry" />
        </mxCell>
        <mxCell id="9hVH7um2cHAASlv1t2qv-10" value="" style="endArrow=none;html=1;rounded=0;exitX=0.5;exitY=0.5;exitDx=0;exitDy=0;exitPerimeter=0;entryX=0;entryY=0.5;entryDx=0;entryDy=0;" edge="1" parent="1" source="9hVH7um2cHAASlv1t2qv-2" target="9hVH7um2cHAASlv1t2qv-4">
          <mxGeometry width="50" height="50" relative="1" as="geometry">
            <mxPoint x="360" y="590" as="sourcePoint" />
            <mxPoint x="410" y="540" as="targetPoint" />
            <Array as="points">
              <mxPoint x="230" y="630" />
              <mxPoint x="230" y="585" />
            </Array>
          </mxGeometry>
        </mxCell>
        <mxCell id="9hVH7um2cHAASlv1t2qv-11" value="" style="endArrow=none;html=1;rounded=0;exitX=0.5;exitY=0.5;exitDx=0;exitDy=0;exitPerimeter=0;entryX=0;entryY=0.5;entryDx=0;entryDy=0;" edge="1" parent="1" source="9hVH7um2cHAASlv1t2qv-2" target="9hVH7um2cHAASlv1t2qv-5">
          <mxGeometry width="50" height="50" relative="1" as="geometry">
            <mxPoint x="360" y="590" as="sourcePoint" />
            <mxPoint x="410" y="540" as="targetPoint" />
            <Array as="points">
              <mxPoint x="230" y="630" />
              <mxPoint x="230" y="700" />
            </Array>
          </mxGeometry>
        </mxCell>
        <mxCell id="9hVH7um2cHAASlv1t2qv-12" value="" style="endArrow=none;html=1;rounded=0;exitX=0.5;exitY=0.5;exitDx=0;exitDy=0;exitPerimeter=0;entryX=0;entryY=0.5;entryDx=0;entryDy=0;" edge="1" parent="1" source="9hVH7um2cHAASlv1t2qv-2" target="9hVH7um2cHAASlv1t2qv-1">
          <mxGeometry width="50" height="50" relative="1" as="geometry">
            <mxPoint x="360" y="590" as="sourcePoint" />
            <mxPoint x="410" y="540" as="targetPoint" />
            <Array as="points">
              <mxPoint x="230" y="630" />
              <mxPoint x="230" y="470" />
            </Array>
          </mxGeometry>
        </mxCell>
        <mxCell id="9hVH7um2cHAASlv1t2qv-13" value="" style="endArrow=none;html=1;rounded=0;exitX=0.5;exitY=0.5;exitDx=0;exitDy=0;exitPerimeter=0;entryX=0;entryY=0.5;entryDx=0;entryDy=0;" edge="1" parent="1" source="9hVH7um2cHAASlv1t2qv-2" target="9hVH7um2cHAASlv1t2qv-8">
          <mxGeometry width="50" height="50" relative="1" as="geometry">
            <mxPoint x="360" y="590" as="sourcePoint" />
            <mxPoint x="410" y="540" as="targetPoint" />
            <Array as="points">
              <mxPoint x="230" y="630" />
              <mxPoint x="230" y="820" />
            </Array>
          </mxGeometry>
        </mxCell>
        <mxCell id="9hVH7um2cHAASlv1t2qv-14" value="" style="endArrow=none;dashed=1;html=1;dashPattern=1 3;strokeWidth=2;rounded=0;exitX=1;exitY=0.5;exitDx=0;exitDy=0;entryX=0;entryY=0.5;entryDx=0;entryDy=0;" edge="1" parent="1" source="9hVH7um2cHAASlv1t2qv-8" target="9hVH7um2cHAASlv1t2qv-9">
          <mxGeometry width="50" height="50" relative="1" as="geometry">
            <mxPoint x="360" y="590" as="sourcePoint" />
            <mxPoint x="410" y="540" as="targetPoint" />
          </mxGeometry>
        </mxCell>
        <mxCell id="9hVH7um2cHAASlv1t2qv-15" value="&amp;lt;Extends&amp;gt;" style="edgeLabel;html=1;align=center;verticalAlign=middle;resizable=0;points=[];" vertex="1" connectable="0" parent="9hVH7um2cHAASlv1t2qv-14">
          <mxGeometry x="-0.0054" y="1" relative="1" as="geometry">
            <mxPoint x="-11" y="-19" as="offset" />
          </mxGeometry>
        </mxCell>
      </root>
    </mxGraphModel>
  </diagram>
</mxfile>
